<svg xmlns="http://www.w3.org/2000/svg" width="250" height="300" viewBox="0 0 250 300">
<rect width="250" height="300" fill="#ffffff"/>
<g>
<g fill="rgb(234,197,5)" transform="translate(76,289)">
<path d="M0 0 C0.3 1 0.7 2 1 3 C0.3 3 -0.3 3 -1 3 C-0.7 2 -0.3 1 0 0 Z "  transform="translate(59,0)"/>
<path d="M0 0 C0.7 0 1.3 0 2 0 C2 0.7 2 1.3 2 2 C1.3 2 0.7 2 0 2 C0 1.3 0 0.7 0 0 Z "  transform="translate(83,0)"/>
<path d="M0 0 C0.7 0 1.3 0 2 0 C2 0.7 2 1.3 2 2 C1.3 2 0.7 2 0 2 C0 1.3 0 0.7 0 0 Z "  transform="translate(6,2)"/>
<path d="M0 0 C0.7 0 1.3 0 2 0 C2 0.7 2 1.3 2 2 C1.3 2 0.7 2 0 2 C0 1.3 0 0.7 0 0 Z "  transform="translate(55,2)"/>
<path d="M0 0 C1 0 2 0 3 0 C3 0.7 3 1.3 3 2 C2 2 1 2 0 2 C0 1.3 0 0.7 0 0 Z "  transform="translate(97,4)"/>
<path d="M0 0 C0.7 0 1.3 0 2 0 C2 0.7 2 1.3 2 2 C1.3 2 0.7 2 0 2 C0 1.3 0 0.7 0 0 Z "  transform="translate(2,6)"/>
<path d="M0 0 C0.7 0 1.3 0 2 0 C2.3 1.3 2.7 2.6 3 4 C2.3 4 1.7 4 1 4 C0.7 2.7 0.3 1.4 0 0 Z "  transform="translate(101,6)"/>
<path d="M0 0 C0.7 0 1.3 0 2 0 C2 0.7 2 1.3 2 2 C1.3 2 0.7 2 0 2 C0 1.3 0 0.7 0 0 Z "  transform="translate(39,8)"/>
<path d="M0 0 C0.7 0 1.3 0 2 0 C2 0.7 2 1.3 2 2 C1.3 2 0.7 2 0 2 C0 1.3 0 0.7 0 0 Z "  transform="translate(0,9)"/>
</g>
<g fill="rgb(243,205,3)" transform="translate(55,289)">
<path d="M0 0 C0.7 0 1.3 0 2 0 C2 0.7 2 1.3 2 2 C1.3 2 0.7 2 0 2 C0 1.3 0 0.7 0 0 Z "  transform="translate(106,0)"/>
<path d="M0 0 C0.7 0 1.3 0 2 0 C2 0.7 2 1.3 2 2 C1.3 2 0.7 2 0 2 C0 1.3 0 0.7 0 0 Z "  transform="translate(109,1)"/>
<path d="M0 0 C0.7 0 1.3 0 2 0 C2 0.7 2 1.3 2 2 C1.3 2 0.7 2 0 2 C0 1.3 0 0.7 0 0 Z "  transform="translate(0,2)"/>
<path d="M0 0 C0.7 0 1.3 0 2 0 C2 0.7 2 1.3 2 2 C1.3 2 0.7 2 0 2 C0 1.3 0 0.7 0 0 Z "  transform="translate(16,2)"/>
<path d="M0 0 C0.7 0 1.3 0 2 0 C2 0.7 2 1.3 2 2 C1.3 2 0.7 2 0 2 C0 1.3 0 0.7 0 0 Z "  transform="translate(71,2)"/>
<path d="M0 0 C0.7 0 1.3 0 2 0 C2 0.7 2 1.3 2 2 C1.3 2 0.7 2 0 2 C0 1.3 0 0.7 0 0 Z "  transform="translate(60,4)"/>
<path d="M0 0 C0.7 0 1.3 0 2 0 C2 0.7 2 1.3 2 2 C1.3 2 0.7 2 0 2 C0 1.3 0 0.7 0 0 Z "  transform="translate(22,9)"/>
<path d="M0 0 C0.7 0 1.3 0 2 0 C2 0.7 2 1.3 2 2 C1.3 2 0.7 2 0 2 C0 1.3 0 0.7 0 0 Z "  transform="translate(56,9)"/>
</g>
<g fill="rgb(160,133,25)" transform="translate(71,290)">
<path d="M0 0 C0.7 0 1.3 0 2 0 C2 0.7 2 1.3 2 2 C1.3 2 0.7 2 0 2 C0 1.3 0 0.7 0 0 Z "  transform="translate(60,0)"/>
<path d="M0 0 C0.7 0 1.3 0 2 0 C2 0.7 2 1.3 2 2 C1.3 2 0.7 2 0 2 C0 1.3 0 0.7 0 0 Z "  transform="translate(45,1)"/>
<path d="M0 0 C0.7 0 1.3 0 2 0 C2 3 2 5.9 2 9 C1.3 9 0.7 9 0 9 C0 6 0 3.1 0 0 Z "  transform="translate(67,1)"/>
<path d="M0 0 C0.7 0 1.3 0 2 0 C2 0.7 2 1.3 2 2 C1.3 2 0.7 2 0 2 C0 1.3 0 0.7 0 0 Z "  transform="translate(0,2)"/>
<path d="M0 0 C0.7 0 1.3 0 2 0 C2 0.7 2 1.3 2 2 C1.3 2 0.7 2 0 2 C0 1.3 0 0.7 0 0 Z "  transform="translate(11,2)"/>
<path d="M0 0 C0.7 0 1.3 0 2 0 C2 0.7 2 1.3 2 2 C1.3 2 0.7 2 0 2 C0 1.3 0 0.7 0 0 Z "  transform="translate(83,2)"/>
<path d="M0 0 C0.7 0 1.3 0 2 0 C2 0.7 2 1.3 2 2 C1.3 2 0.7 2 0 2 C0 1.3 0 0.7 0 0 Z "  transform="translate(58,3)"/>
<path d="M0 0 C0.7 0 1.3 0 2 0 C2 0.7 2 1.3 2 2 C1.3 2 0.7 2 0 2 C0 1.3 0 0.7 0 0 Z "  transform="translate(7,4)"/>
<path d="M0 0 C0.7 0 1.3 0 2 0 C2 1.3 2 2.6 2 4 C1.3 4 0.7 4 0 4 C0 2.7 0 1.4 0 0 Z "  transform="translate(86,4)"/>
<path d="M0 0 C0.7 0 1.3 0 2 0 C2 0.7 2 1.3 2 2 C1.3 2 0.7 2 0 2 C0 1.3 0 0.7 0 0 Z "  transform="translate(46,5)"/>
<path d="M0 0 C0.7 0 1.3 0 2 0 C2 0.7 2 1.3 2 2 C1.3 2 0.7 2 0 2 C0 1.3 0 0.7 0 0 Z "  transform="translate(41,6)"/>
<path d="M0 0 C0.7 0 1.3 0 2 0 C2 0.7 2 1.3 2 2 C1.3 2 0.7 2 0 2 C0 1.3 0 0.7 0 0 Z "  transform="translate(5,7)"/>
<path d="M0 0 C0.7 0 1.3 0 2 0 C2 0.7 2 1.3 2 2 C1.3 2 0.7 2 0 2 C0 1.3 0 0.7 0 0 Z "  transform="translate(52,8)"/>
<path d="M0 0 C0.7 0 1.3 0 2 0 C2 0.7 2 1.3 2 2 C1.3 2 0.7 2 0 2 C0 1.3 0 0.7 0 0 Z "  transform="translate(63,8)"/>
<path d="M0 0 C0.7 0 1.3 0 2 0 C2 0.7 2 1.3 2 2 C1.3 2 0.7 2 0 2 C0 1.3 0 0.7 0 0 Z "  transform="translate(83,8)"/>
</g>
<g fill="rgb(93,75,42)" transform="translate(55,290)">
<path d="M0 0 C0.7 0 1.3 0 2 0 C2 0.7 2 1.3 2 2 C1.3 2 0.7 2 0 2 C0 1.3 0 0.7 0 0 Z "  transform="translate(28,0)"/>
<path d="M0 0 C0.7 0 1.3 0 2 0 C2 0.7 2 1.3 2 2 C1.3 2 0.7 2 0 2 C0 1.3 0 0.7 0 0 Z "  transform="translate(120,0)"/>
<path d="M0 0 C0.7 0 1.3 0 2 0 C2 0.7 2 1.3 2 2 C1.3 2 0.7 2 0 2 C0 1.3 0 0.7 0 0 Z "  transform="translate(104,1)"/>
<path d="M0 0 C0.7 0 1.3 0 2 0 C2 0.7 2 1.3 2 2 C1.3 2 0.7 2 0 2 C0 1.3 0 0.7 0 0 Z "  transform="translate(111,1)"/>
<path d="M0 0 C0.7 0 1.3 0 2 0 C2 0.7 2 1.3 2 2 C1.3 2 0.7 2 0 2 C0 1.3 0 0.7 0 0 Z "  transform="translate(0,2)"/>
<path d="M0 0 C0.7 0 1.3 0 2 0 C2 0.7 2 1.3 2 2 C1.3 2 0.7 2 0 2 C0 1.3 0 0.7 0 0 Z "  transform="translate(16,3)"/>
<path d="M0 0 C0.7 0 1.3 0 2 0 C2 0.7 2 1.3 2 2 C1.3 2 0.7 2 0 2 C0 1.3 0 0.7 0 0 Z "  transform="translate(22,6)"/>
<path d="M0 0 C0.7 0 1.3 0 2 0 C2 0.7 2 1.3 2 2 C1.3 2 0.7 2 0 2 C0 1.3 0 0.7 0 0 Z "  transform="translate(68,7)"/>
<path d="M0 0 C0.7 0 1.3 0 2 0 C2 0.7 2 1.3 2 2 C1.3 2 0.7 2 0 2 C0 1.3 0 0.7 0 0 Z "  transform="translate(0,8)"/>
<path d="M0 0 C0.7 0 1.3 0 2 0 C2 0.7 2 1.3 2 2 C1.3 2 0.7 2 0 2 C0 1.3 0 0.7 0 0 Z "  transform="translate(60,8)"/>
<path d="M0 0 C0.7 0 1.3 0 2 0 C2 0.7 2 1.3 2 2 C1.3 2 0.7 2 0 2 C0 1.3 0 0.7 0 0 Z "  transform="translate(121,8)"/>
</g>
<g fill="rgb(225,189,8)" transform="translate(59,289)">
<path d="M0 0 C0.7 0 1.3 0 2 0 C2 0.7 2 1.3 2 2 C1.3 2 0.7 2 0 2 C0 1.3 0 0.7 0 0 Z "  transform="translate(0,0)"/>
<path d="M0 0 C0.7 0 1.3 0 2 0 C1.7 1.3 1.3 2.6 1 4 C0.3 4 -0.3 4 -1 4 C-0.7 2.7 -0.3 1.4 0 0 Z "  transform="translate(96,2)"/>
<path d="M0 0 C0.7 0 1.3 0 2 0 C2 0.7 2 1.3 2 2 C1.3 2 0.7 2 0 2 C0 1.3 0 0.7 0 0 Z "  transform="translate(60,3)"/>
<path d="M0 0 C0.7 0 1.3 0 2 0 C2 0.7 2 1.3 2 2 C1.3 2 0.7 2 0 2 C0 1.3 0 0.7 0 0 Z "  transform="translate(13,5)"/>
<path d="M0 0 C0.7 0 1.3 0 2 0 C2 0.7 2 1.3 2 2 C1.3 2 0.7 2 0 2 C0 1.3 0 0.7 0 0 Z "  transform="translate(55,5)"/>
<path d="M0 0 C0.7 0 1.3 0 2 0 C2 2 2 4 2 6 C1.3 6 0.7 6 0 6 C0 4 0 2 0 0 Z "  transform="translate(114,5)"/>
<path d="M0 0 C0.7 0 1.3 0 2 0 C2 0.7 2 1.3 2 2 C1.3 2 0.7 2 0 2 C0 1.3 0 0.7 0 0 Z "  transform="translate(65,7)"/>
<path d="M0 0 C0.7 0 1.3 0 2 0 C2.3 1 2.7 2 3 3 C2 2.7 1 2.3 0 2 C0 1.3 0 0.7 0 0 Z "  transform="translate(95,8)"/>
<path d="M0 0 C0.7 0 1.3 0 2 0 C2 0.7 2 1.3 2 2 C1.3 2 0.7 2 0 2 C0 1.3 0 0.7 0 0 Z "  transform="translate(120,8)"/>
</g>
<g fill="rgb(213,179,11)" transform="translate(52,289)">
<path d="M0 0 C0.7 0 1.3 0 2 0 C2 0.7 2 1.3 2 2 C1.3 2 0.7 2 0 2 C0 1.3 0 0.7 0 0 Z "  transform="translate(28,0)"/>
<path d="M0 0 C0.7 0 1.3 0 2 0 C2 0.7 2 1.3 2 2 C1.3 2 0.7 2 0 2 C0 1.3 0 0.7 0 0 Z "  transform="translate(106,0)"/>
<path d="M0 0 C0.7 0 1.3 0 2 0 C2 0.7 2 1.3 2 2 C1.3 2 0.7 2 0 2 C0 1.3 0 0.7 0 0 Z "  transform="translate(110,0)"/>
<path d="M0 0 C0.7 0 1.3 0 2 0 C2.3 1.3 2.7 2.6 3 4 C2.3 4 1.7 4 1 4 C0.7 2.7 0.3 1.4 0 0 Z "  transform="translate(122,0)"/>
<path d="M0 0 C0.7 0 1.3 0 2 0 C2 3 2 5.9 2 9 C1.3 9 0.7 9 0 9 C0 6 0 3.1 0 0 Z "  transform="translate(127,0)"/>
<path d="M0 0 C0.7 0 1.3 0 2 0 C1.7 1 1.3 2 1 3 C0.3 3 -0.3 3 -1 3 C-0.7 2 -0.3 1 0 0 Z "  transform="translate(1,1)"/>
<path d="M0 0 C0.7 0 1.3 0 2 0 C2 0.7 2 1.3 2 2 C1.3 2 0.7 2 0 2 C0 1.3 0 0.7 0 0 Z "  transform="translate(9,2)"/>
<path d="M0 0 C0.7 0 1.3 0 2 0 C2 0.7 2 1.3 2 2 C1.3 2 0.7 2 0 2 C0 1.3 0 0.7 0 0 Z "  transform="translate(68,2)"/>
<path d="M0 0 C0.7 0 1.3 0 2 0 C2 0.7 2 1.3 2 2 C1.3 2 0.7 2 0 2 C0 1.3 0 0.7 0 0 Z "  transform="translate(22,3)"/>
<path d="M0 0 C0.7 0 1.3 0 2 0 C2 0.7 2 1.3 2 2 C1.3 2 0.7 2 0 2 C0 1.3 0 0.7 0 0 Z "  transform="translate(76,3)"/>
<path d="M0 0 C0.7 0 1.3 0 2 0 C2 0.7 2 1.3 2 2 C1.3 2 0.7 2 0 2 C0 1.3 0 0.7 0 0 Z "  transform="translate(111,3)"/>
<path d="M0 0 C0.7 0 1.3 0 2 0 C2 0.7 2 1.3 2 2 C1.3 2 0.7 2 0 2 C0 1.3 0 0.7 0 0 Z "  transform="translate(114,3)"/>
<path d="M0 0 C0.7 0 1.3 0 2 0 C2 0.7 2 1.3 2 2 C1.3 2 0.7 2 0 2 C0 1.3 0 0.7 0 0 Z "  transform="translate(2,4)"/>
<path d="M0 0 C0.7 0 1.3 0 2 0 C2 0.7 2 1.3 2 2 C1.3 2 0.7 2 0 2 C0 1.3 0 0.7 0 0 Z "  transform="translate(73,4)"/>
<path d="M0 0 C0.7 0 1.3 0 2 0 C2 0.7 2 1.3 2 2 C1.3 2 0.7 2 0 2 C0 1.3 0 0.7 0 0 Z "  transform="translate(29,5)"/>
<path d="M0 0 C0.7 0 1.3 0 2 0 C2 0.7 2 1.3 2 2 C1.3 2 0.7 2 0 2 C0 1.3 0 0.7 0 0 Z "  transform="translate(61,6)"/>
<path d="M0 0 C0.7 0 1.3 0 2 0 C2 0.7 2 1.3 2 2 C1.3 2 0.7 2 0 2 C0 1.3 0 0.7 0 0 Z "  transform="translate(75,6)"/>
<path d="M0 0 C0.7 0 1.3 0 2 0 C2 0.7 2 1.3 2 2 C1.3 2 0.7 2 0 2 C0 1.3 0 0.7 0 0 Z "  transform="translate(78,6)"/>
<path d="M0 0 C0.7 0 1.3 0 2 0 C2 0.7 2 1.3 2 2 C1.3 2 0.7 2 0 2 C0 1.3 0 0.7 0 0 Z "  transform="translate(64,7)"/>
<path d="M0 0 C0.7 0 1.3 0 2 0 C2 0.7 2 1.3 2 2 C1.3 2 0.7 2 0 2 C0 1.3 0 0.7 0 0 Z "  transform="translate(81,7)"/>
<path d="M0 0 C0.7 0 1.3 0 2 0 C2 0.7 2 1.3 2 2 C1.3 2 0.7 2 0 2 C0 1.3 0 0.7 0 0 Z "  transform="translate(2,8)"/>
<path d="M0 0 C0.7 0 1.3 0 2 0 C2 0.7 2 1.3 2 2 C1.3 2 0.7 2 0 2 C0 1.3 0 0.7 0 0 Z "  transform="translate(21,8)"/>
<path d="M0 0 C0.7 0 1.3 0 2 0 C2.3 1 2.7 2 3 3 C2 2.7 1 2.3 0 2 C0 1.3 0 0.7 0 0 Z "  transform="translate(124,8)"/>
<path d="M0 0 C0.7 0 1.3 0 2 0 C2 0.7 2 1.3 2 2 C1.3 2 0.7 2 0 2 C0 1.3 0 0.7 0 0 Z "  transform="translate(111,9)"/>
<path d="M0 0 C0.7 0 1.3 0 2 0 C2 0.7 2 1.3 2 2 C1.3 2 0.7 2 0 2 C0 1.3 0 0.7 0 0 Z "  transform="translate(114,9)"/>
<path d="M0 0 C2 1 2 1 2 1 Z "  transform="translate(0,10)"/>
</g>
<g fill="rgb(220,185,9)" transform="translate(51,290)">
<path d="M0 0 C1 0.3 2 0.7 3 1 C3 1.7 3 2.3 3 3 C1.7 2.3 0.4 1.7 -1 1 C-0.7 0.7 -0.3 0.3 0 0 Z "  transform="translate(106,0)"/>
<path d="M0 0 C0.7 0 1.3 0 2 0 C2 3 2 5.9 2 9 C1.3 9 0.7 9 0 9 C0 6 0 3.1 0 0 Z "  transform="translate(90,1)"/>
<path d="M0 0 C0.7 0 1.3 0 2 0 C2 0.7 2 1.3 2 2 C1.3 2 0.7 2 0 2 C0 1.3 0 0.7 0 0 Z "  transform="translate(28,2)"/>
<path d="M0 0 C0.7 0 1.3 0 2 0 C2 0.7 2 1.3 2 2 C1.3 2 0.7 2 0 2 C0 1.3 0 0.7 0 0 Z "  transform="translate(78,2)"/>
<path d="M0 0 C0.7 0 1.3 0 2 0 C2 0.7 2 1.3 2 2 C1.3 2 0.7 2 0 2 C0 1.3 0 0.7 0 0 Z "  transform="translate(0,3)"/>
<path d="M0 0 C0.7 0 1.3 0 2 0 C1.7 1.3 1.3 2.6 1 4 C0.3 4 -0.3 4 -1 4 C-0.7 2.7 -0.3 1.4 0 0 Z "  transform="translate(125,3)"/>
<path d="M0 0 C0.7 0 1.3 0 2 0 C2 0.7 2 1.3 2 2 C1.3 2 0.7 2 0 2 C0 1.3 0 0.7 0 0 Z "  transform="translate(24,5)"/>
<path d="M0 0 C0.7 0 1.3 0 2 0 C2 0.7 2 1.3 2 2 C1.3 2 0.7 2 0 2 C0 1.3 0 0.7 0 0 Z "  transform="translate(0,7)"/>
</g>
<g fill="rgb(130,107,33)" transform="translate(51,289)">
<path d="M0 0 C0.7 0 1.3 0 2 0 C2 3.6 2 7.3 2 11 C1.3 11 0.7 11 0 11 C0 7.4 0 3.7 0 0 Z "  transform="translate(131,0)"/>
<path d="M0 0 C0.7 0 1.3 0 2 0 C2 0.7 2 1.3 2 2 C1.3 2 0.7 2 0 2 C0 1.3 0 0.7 0 0 Z "  transform="translate(5,2)"/>
<path d="M0 0 C0.7 0 1.3 0 2 0 C2 0.7 2 1.3 2 2 C1.3 2 0.7 2 0 2 C0 1.3 0 0.7 0 0 Z "  transform="translate(23,2)"/>
<path d="M0 0 C0.7 0 1.3 0 2 0 C2 0.7 2 1.3 2 2 C1.3 2 0.7 2 0 2 C0 1.3 0 0.7 0 0 Z "  transform="translate(28,2)"/>
<path d="M0 0 C0.7 0 1.3 0 2 0 C2 0.7 2 1.3 2 2 C1.3 2 0.7 2 0 2 C0 1.3 0 0.7 0 0 Z "  transform="translate(0,3)"/>
<path d="M0 0 C0.7 0 1.3 0 2 0 C2 0.7 2 1.3 2 2 C1.3 2 0.7 2 0 2 C0 1.3 0 0.7 0 0 Z "  transform="translate(77,4)"/>
<path d="M0 0 C0.7 0 1.3 0 2 0 C2 0.7 2 1.3 2 2 C1.3 2 0.7 2 0 2 C0 1.3 0 0.7 0 0 Z "  transform="translate(112,4)"/>
<path d="M0 0 C0.7 0 1.3 0 2 0 C2 1.3 2 2.6 2 4 C1.3 4 0.7 4 0 4 C0 2.7 0 1.4 0 0 Z "  transform="translate(3,5)"/>
<path d="M0 0 C0.7 0 1.3 0 2 0 C2 0.7 2 1.3 2 2 C1.3 2 0.7 2 0 2 C0 1.3 0 0.7 0 0 Z "  transform="translate(24,5)"/>
<path d="M0 0 C0.7 0 1.3 0 2 0 C2 0.7 2 1.3 2 2 C1.3 2 0.7 2 0 2 C0 1.3 0 0.7 0 0 Z "  transform="translate(123,5)"/>
<path d="M0 0 C0.7 0 1.3 0 2 0 C2 0.7 2 1.3 2 2 C1.3 2 0.7 2 0 2 C0 1.3 0 0.7 0 0 Z "  transform="translate(21,6)"/>
<path d="M0 0 C0.7 0 1.3 0 2 0 C2 0.7 2 1.3 2 2 C1.3 2 0.7 2 0 2 C0 1.3 0 0.7 0 0 Z "  transform="translate(30,6)"/>
<path d="M0 0 C0.7 0 1.3 0 2 0 C2 0.7 2 1.3 2 2 C1.3 2 0.7 2 0 2 C0 1.3 0 0.7 0 0 Z "  transform="translate(73,6)"/>
<path d="M0 0 C0.7 0 1.3 0 2 0 C2 0.7 2 1.3 2 2 C1.3 2 0.7 2 0 2 C0 1.3 0 0.7 0 0 Z "  transform="translate(82,6)"/>
<path d="M0 0 C0.7 0 1.3 0 2 0 C2 0.7 2 1.3 2 2 C1.3 2 0.7 2 0 2 C0 1.3 0 0.7 0 0 Z "  transform="translate(106,6)"/>
<path d="M0 0 C0.7 0 1.3 0 2 0 C2 0.7 2 1.3 2 2 C1.3 2 0.7 2 0 2 C0 1.3 0 0.7 0 0 Z "  transform="translate(79,7)"/>
<path d="M0 0 C0.7 0 1.3 0 2 0 C2 0.7 2 1.3 2 2 C1.3 2 0.7 2 0 2 C0 1.3 0 0.7 0 0 Z "  transform="translate(127,7)"/>
<path d="M0 0 C0.7 0 1.3 0 2 0 C2 0.7 2 1.3 2 2 C1.3 2 0.7 2 0 2 C0 1.3 0 0.7 0 0 Z "  transform="translate(112,8)"/>
<path d="M0 0 C0.7 0 1.3 0 2 0 C2 0.7 2 1.3 2 2 C1.3 2 0.7 2 0 2 C0 1.3 0 0.7 0 0 Z "  transform="translate(0,9)"/>
</g>
<g fill="rgb(117,96,36)" transform="translate(60,289)">
<path d="M0 0 C0.7 0 1.3 0 2 0 C1.7 1.3 1.3 2.6 1 4 C0.3 4 -0.3 4 -1 4 C-0.7 2.7 -0.3 1.4 0 0 Z "  transform="translate(1,0)"/>
<path d="M0 0 C0.7 0 1.3 0 2 0 C2 3.6 2 7.3 2 11 C1.3 11 0.7 11 0 11 C0 7.4 0 3.7 0 0 Z "  transform="translate(4,0)"/>
<path d="M0 0 C0.7 0 1.3 0 2 0 C2 3.6 2 7.3 2 11 C1.3 11 0.7 11 0 11 C0 7.4 0 3.7 0 0 Z "  transform="translate(25,0)"/>
<path d="M0 0 C0.7 0 1.3 0 2 0 C2 3.6 2 7.3 2 11 C1.3 11 0.7 11 0 11 C0 7.4 0 3.7 0 0 Z "  transform="translate(32,0)"/>
<path d="M0 0 C0.7 0 1.3 0 2 0 C2 3.6 2 7.3 2 11 C1.3 11 0.7 11 0 11 C0 7.4 0 3.7 0 0 Z "  transform="translate(43,0)"/>
<path d="M0 0 C0.7 0 1.3 0 2 0 C2 3.6 2 7.3 2 11 C1.3 11 0.7 11 0 11 C0 7.4 0 3.7 0 0 Z "  transform="translate(88,0)"/>
<path d="M0 0 C0.7 0 1.3 0 2 0 C2 3.6 2 7.3 2 11 C1.3 11 0.7 11 0 11 C0 7.4 0 3.7 0 0 Z "  transform="translate(110,0)"/>
<path d="M0 0 C0.7 0 1.3 0 2 0 C2 0.7 2 1.3 2 2 C1.3 2 0.7 2 0 2 C0 1.3 0 0.7 0 0 Z "  transform="translate(10,1)"/>
<path d="M0 0 C0.7 0 1.3 0 2 0 C2 0.7 2 1.3 2 2 C1.3 2 0.7 2 0 2 C0 1.3 0 0.7 0 0 Z "  transform="translate(105,1)"/>
<path d="M0 0 C0.7 0 1.3 0 2 0 C2 0.7 2 1.3 2 2 C1.3 2 0.7 2 0 2 C0 1.3 0 0.7 0 0 Z "  transform="translate(55,3)"/>
<path d="M0 0 C0.7 0 1.3 0 2 0 C2 0.7 2 1.3 2 2 C1.3 2 0.7 2 0 2 C0 1.3 0 0.7 0 0 Z "  transform="translate(65,3)"/>
<path d="M0 0 C0.7 0 1.3 0 2 0 C2 0.7 2 1.3 2 2 C1.3 2 0.7 2 0 2 C0 1.3 0 0.7 0 0 Z "  transform="translate(72,3)"/>
<path d="M0 0 C0.7 0 1.3 0 2 0 C2.3 1.3 2.7 2.6 3 4 C2.3 4 1.7 4 1 4 C0.7 2.7 0.3 1.4 0 0 Z "  transform="translate(116,3)"/>
<path d="M0 0 C0.7 0 1.3 0 2 0 C2 0.7 2 1.3 2 2 C1.3 2 0.7 2 0 2 C0 1.3 0 0.7 0 0 Z "  transform="translate(58,5)"/>
<path d="M0 0 C0.7 0 1.3 0 2 0 C2 1.3 2 2.6 2 4 C1.3 4 0.7 4 0 4 C0 2.7 0 1.4 0 0 Z "  transform="translate(107,5)"/>
<path d="M0 0 C0.7 0 1.3 0 2 0 C2 0.7 2 1.3 2 2 C1.3 2 0.7 2 0 2 C0 1.3 0 0.7 0 0 Z "  transform="translate(67,7)"/>
<path d="M0 0 C0.7 0 1.3 0 2 0 C2 0.7 2 1.3 2 2 C1.3 2 0.7 2 0 2 C0 1.3 0 0.7 0 0 Z "  transform="translate(115,7)"/>
<path d="M0 0 C0.7 0 1.3 0 2 0 C2 0.7 2 1.3 2 2 C1.3 2 0.7 2 0 2 C0 1.3 0 0.7 0 0 Z "  transform="translate(51,8)"/>
<path d="M0 0 C0.7 0 1.3 0 2 0 C2 0.7 2 1.3 2 2 C1.3 2 0.7 2 0 2 C0 1.3 0 0.7 0 0 Z "  transform="translate(13,9)"/>
<path d="M0 0 C0.7 0 1.3 0 2 0 C2 0.7 2 1.3 2 2 C1.3 2 0.7 2 0 2 C0 1.3 0 0.7 0 0 Z "  transform="translate(20,9)"/>
</g>
<g fill="rgb(139,105,20)" transform="translate(25,40)">
<path d="M0 0 C6.4 3.4 12.7 7 18.9 10.8 C21.9 12.7 25 14.6 28.1 16.5 C28.4 16.7 28.4 16.7 30 17.7 C37.3 22.1 44.6 26.4 52 30.8 C62.6 37.1 73.2 43.4 83.8 49.8 C84.4 50.2 85 50.6 85.6 50.9 C95.4 56.9 95.4 56.9 99 59.3 C99 59.9 99 60.6 99 61.3 C32.3 61.3 -34.4 61.3 -103 61.3 C-101.7 57.3 -100.2 56.9 -96.6 54.9 C-96 54.5 -95.4 54.2 -94.9 53.9 C-93.6 53.2 -92.4 52.5 -91.2 51.8 C-87.8 49.9 -84.5 47.9 -81.2 46 C-80.5 45.6 -79.8 45.2 -79.1 44.8 C-72.4 40.9 -65.8 36.9 -59.2 32.9 C-47.4 25.7 -35.6 18.6 -23.7 11.6 C-22.4 10.8 -21.1 10.1 -19.8 9.3 C-19.2 9 -18.6 8.6 -18 8.2 C-14.7 6.3 -11.5 4.3 -8.3 2.3 C-2.9 -1 -2.9 -1 0 0 Z M-10.4 5.8 C-10.8 6 -10.8 6 -12.3 7 C-14.4 8.2 -16.5 9.5 -18.5 10.7 C-20 11.6 -21.4 12.5 -22.9 13.3 C-27.3 16 -31.7 18.6 -36 21.3 C-37.3 22 -38.5 22.8 -39.8 23.5 C-44.3 26.3 -48.9 29.1 -53.4 31.8 C-59.9 35.8 -66.3 39.6 -72.9 43.5 C-73.2 43.7 -73.2 43.7 -75.1 44.8 C-78.7 46.9 -82.4 49.1 -86 51.2 C-87.3 52 -88.6 52.7 -89.9 53.5 C-90.5 53.9 -91.1 54.2 -91.8 54.6 C-95.9 57 -95.9 57 -97 59.3 C-34.3 59.3 28.4 59.3 93 59.3 C90.1 56.4 87.2 54.5 83.7 52.4 C83 52 82.4 51.7 81.7 51.3 C80.4 50.5 79 49.7 77.7 48.9 C74 46.8 70.4 44.6 66.7 42.5 C66 42 65.2 41.6 64.5 41.1 C57.6 37 50.7 32.9 43.8 28.7 C41.6 27.3 39.3 26 37 24.6 C33.3 22.3 29.6 20.1 25.9 17.8 C22.4 15.7 19 13.5 15.5 11.4 C14.1 10.6 12.8 9.8 11.5 9 C9.6 7.9 7.8 6.7 5.9 5.6 C5.4 5.3 5.4 5.3 2.7 3.7 C-2.6 1 -5.8 3 -10.4 5.8 Z "  transform="translate(103.03662109375,0.72802734375)"/>
</g>
<g fill="rgb(255,215,0)" transform="translate(51,289)">
<path d="M0 0 C1.3 0 2.6 0 4 0 C4 3.6 4 7.3 4 11 C2.7 11 1.4 11 0 11 C0 7.4 0 3.7 0 0 Z "  transform="translate(14,0)"/>
<path d="M0 0 C1.9 0.1 1.9 0.1 4 1 C5.2 4.1 5.2 4.1 6 7 C7.5 4.7 8.8 2.5 10 0 C11 0 12 0 13 0 C12.7 1.5 12.4 2.9 12.1 4.4 C11.9 5.2 11.7 6 11.5 6.8 C11 9 11 9 10 11 C7.7 11 5.4 11 3 11 C2.5 9.7 2 8.5 1.5 7.2 C1.2 6.5 0.9 5.8 0.7 5 C0 3 0 3 0 0 Z "  transform="translate(20,0)"/>
<path d="M0 0 C1.3 0 2.6 0 4 0 C4 3.6 4 7.3 4 11 C2.7 11 1.4 11 0 11 C0 7.4 0 3.7 0 0 Z "  transform="translate(35,0)"/>
<path d="M0 0 C1.3 0 2.6 0 4 0 C4 3.6 4 7.3 4 11 C2.7 11 1.4 11 0 11 C0 7.4 0 3.7 0 0 Z "  transform="translate(42,0)"/>
<path d="M0 0 C1.3 0 2.6 0 4 0 C4 3.6 4 7.3 4 11 C2.7 11 1.4 11 0 11 C0 7.4 0 3.7 0 0 Z "  transform="translate(53,0)"/>
<path d="M0 0 C4 0 7.9 0 12 0 C10.9 4.5 9.3 7.7 6 11 C3.2 11.4 3.2 11.4 1 11 C2.6 8.3 4.2 5.6 6 3 C4 3 2 3 0 3 C0 2 0 1 0 0 Z "  transform="translate(59,0)"/>
<path d="M0 0 C1.7 0 3.3 0 5 0 C5.5 1.3 6 2.5 6.5 3.8 C6.8 4.5 7.1 5.2 7.3 6 C8 8 8 8 8 11 C4.4 11 0.7 11 -3 11 C-2.4 7.1 -1.6 3.7 0 0 Z M2 4 C1.7 5.3 1.3 6.6 1 8 C2 7.7 3 7.3 4 7 C3.3 6 2.7 5 2 4 Z "  transform="translate(76,0)"/>
<path d="M0 0 C4 0 7.9 0 12 0 C12 1 12 2 12 3 C10.3 3 8.7 3 7 3 C7 5.6 7 8.3 7 11 C6 11 5 11 4 11 C4 8.4 4 5.7 4 3 C2.7 3 1.4 3 0 3 C0 2 0 1 0 0 Z "  transform="translate(84,0)"/>
<path d="M0 0 C1.3 0 2.6 0 4 0 C4 3.6 4 7.3 4 11 C2.7 11 1.4 11 0 11 C0 7.4 0 3.7 0 0 Z "  transform="translate(98,0)"/>
<path d="M0 0 C0.8 0.2 0.8 0.2 5 1 C6.8 4.1 6.8 4.1 8 7 C8.3 4.7 8.7 2.4 9 0 C10 0 11 0 12 0 C12 3.6 12 7.3 12 11 C10 11 8 11 6 11 C5.3 9.7 4.7 8.4 4 7 C3.7 8.3 3.3 9.6 3 11 C2 11 1 11 0 11 C0 7.4 0 3.7 0 0 Z "  transform="translate(120,0)"/>
<path d="M0 0 C0 0.7 0 1.3 0 2 C-2.3 2 -4.6 2 -7 2 C-7 4.6 -7 7.3 -7 10 C-8.3 10 -9.6 10 -11 10 C-12.3 4.7 -12.3 4.7 -10.8 1.7 C-7.3 -1.6 -4.5 -1.1 0 0 Z "  transform="translate(12,1)"/>
<path d="M0 0 C1.4 2.7 1.1 5 1 8 C-0.7 8.3 -2.3 8.7 -4 9 C-4 6.7 -4 4.4 -4 2 C-5.3 1.7 -6.6 1.3 -8 1 C-8 3.6 -8 6.3 -8 9 C-9.3 9 -10.6 9 -12 9 C-13.3 3.6 -13.3 3.6 -11.8 0.7 C-7.8 -3.1 -4.7 -1.7 0 0 Z "  transform="translate(116,2)"/>
</g>
<g fill="rgb(128,128,128)" transform="translate(30,101)">
<path d="M0 0 C0.3 0 0.7 0 1 0 C1 59.1 1 118.1 1 179 C63 179 125.1 179 189 179 C189 119.9 189 60.9 189 0 C189.7 0 190.3 0 191 0 C191 59.7 191 119.5 191 181 C127.6 181 64.3 181 -1 181 C-1 151.3 -1 121.6 -1.1 91.1 C-1.1 81.7 -1.1 72.3 -1.1 62.6 C-1.1 51.2 -1.1 51.2 -1.1 45.9 C-1.1 42.1 -1.1 38.4 -1.1 34.6 C-1.1 29.8 -1.1 25.1 -1.1 20.3 C-1.1 18.5 -1.1 16.8 -1.1 15 C-1.1 12.7 -1.1 10.3 -1.1 8 C-1.1 7.3 -1.1 6.6 -1.1 5.8 C-1.1 1.1 -1.1 1.1 0 0 Z "  transform="translate(1,0)"/>
<path d="M0 0 C8.9 0 17.8 0 27 0 C27 50.2 27 100.3 27 152 C18.1 152 9.2 152 0 152 C0 101.8 0 51.7 0 0 Z M2 2 C2 50.8 2 99.7 2 150 C9.6 150 17.2 150 25 150 C25 101.2 25 52.3 25 2 C17.4 2 9.8 2 2 2 Z "  transform="translate(10,19)"/>
<path d="M0 0 C8.9 0 17.8 0 27 0 C27 50.2 27 100.3 27 152 C18.1 152 9.2 152 0 152 C0 101.8 0 51.7 0 0 Z M2 2 C2 50.8 2 99.7 2 150 C9.6 150 17.2 150 25 150 C25 101.2 25 52.3 25 2 C17.4 2 9.8 2 2 2 Z "  transform="translate(48,19)"/>
<path d="M0 0 C8.9 0 17.8 0 27 0 C27 50.2 27 100.3 27 152 C18.1 152 9.2 152 0 152 C0 101.8 0 51.7 0 0 Z M2 2 C2 50.8 2 99.7 2 150 C9.6 150 17.2 150 25 150 C25 101.2 25 52.3 25 2 C17.4 2 9.8 2 2 2 Z "  transform="translate(86,19)"/>
<path d="M0 0 C8.9 0 17.8 0 27 0 C27 50.2 27 100.3 27 152 C18.1 152 9.2 152 0 152 C0 101.8 0 51.7 0 0 Z M2 2 C2 50.8 2 99.7 2 150 C9.6 150 17.2 150 25 150 C25 101.2 25 52.3 25 2 C17.4 2 9.8 2 2 2 Z "  transform="translate(124,19)"/>
<path d="M0 0 C8.9 0 17.8 0 27 0 C27 50.2 27 100.3 27 152 C18.1 152 9.2 152 0 152 C0 101.8 0 51.7 0 0 Z M2 2 C2 50.8 2 99.7 2 150 C9.6 150 17.2 150 25 150 C25 101.2 25 52.3 25 2 C17.4 2 9.8 2 2 2 Z "  transform="translate(162,19)"/>
</g>
<g fill="rgb(184,134,11)" transform="translate(28,41)">
<path d="M0 0 C0.4 0.2 0.4 0.2 2.3 1.3 C2.7 1.5 2.7 1.5 4.9 2.8 C5.8 3.3 6.7 3.9 7.7 4.5 C8.6 5 9.6 5.6 10.6 6.2 C13.3 7.8 15.9 9.4 18.6 11 C21.6 12.9 24.7 14.8 27.8 16.7 C28.1 16.9 28.1 16.9 29.7 17.9 C36.3 21.9 43 25.8 49.7 29.8 C55.7 33.3 61.7 36.9 67.7 40.5 C68.4 40.9 69 41.3 69.7 41.7 C73.8 44.1 77.8 46.5 81.8 48.9 C83 49.6 84.3 50.4 85.5 51.1 C87.3 52.2 89 53.2 90.7 54.2 C91.6 54.8 92.6 55.4 93.6 56 C94.3 56.5 95 57 95.7 57.5 C95.7 58.1 95.7 58.8 95.7 59.5 C31 59.5 -33.7 59.5 -100.3 59.5 C-100.3 58.8 -100.3 58.1 -100.3 57.5 C-98.4 56.1 -96.4 54.9 -94.3 53.7 C-93.7 53.3 -93 53 -92.4 52.6 C-91 51.8 -89.6 51 -88.3 50.2 C-84.6 48 -80.9 45.8 -77.2 43.7 C-76.4 43.2 -75.7 42.8 -74.9 42.3 C-68 38.3 -61.2 34.1 -54.3 30 C-44.6 24 -34.9 18.2 -25.1 12.4 C-23.7 11.5 -22.3 10.7 -20.9 9.8 C-18.9 8.7 -16.9 7.5 -14.9 6.3 C-13.8 5.6 -12.7 5 -11.5 4.3 C-10.5 3.7 -9.4 3.1 -8.3 2.5 C-7.3 1.9 -6.3 1.2 -5.2 0.6 C-2.3 -0.5 -2.3 -0.5 0 0 Z "  transform="translate(100.32958984375,0.53271484375)"/>
<path d="M0 0 C0.7 0 1.3 0 2 0 C2 0.7 2 1.3 2 2 C1.3 2 0.7 2 0 2 C0 1.3 0 0.7 0 0 Z "  transform="translate(27,248)"/>
<path d="M0 0 C0.7 0 1.3 0 2 0 C2 0.7 2 1.3 2 2 C1.3 2 0.7 2 0 2 C0 1.3 0 0.7 0 0 Z "  transform="translate(32,248)"/>
<path d="M0 0 C0.7 0 1.3 0 2 0 C2 0.7 2 1.3 2 2 C1.3 2 0.7 2 0 2 C0 1.3 0 0.7 0 0 Z "  transform="translate(45,248)"/>
<path d="M0 0 C0.7 0 1.3 0 2 0 C2 0.7 2 1.3 2 2 C1.3 2 0.7 2 0 2 C0 1.3 0 0.7 0 0 Z "  transform="translate(55,248)"/>
<path d="M0 0 C0.7 0 1.3 0 2 0 C2 0.7 2 1.3 2 2 C1.3 2 0.7 2 0 2 C0 1.3 0 0.7 0 0 Z "  transform="translate(98,249)"/>
<path d="M0 0 C0.7 0 1.3 0 2 0 C2 0.7 2 1.3 2 2 C1.3 2 0.7 2 0 2 C0 1.3 0 0.7 0 0 Z "  transform="translate(134,250)"/>
<path d="M0 0 C0.7 0 1.3 0 2 0 C2 0.7 2 1.3 2 2 C1.3 2 0.7 2 0 2 C0 1.3 0 0.7 0 0 Z "  transform="translate(104,252)"/>
<path d="M0 0 C0.7 0 1.3 0 2 0 C2 0.7 2 1.3 2 2 C1.3 2 0.7 2 0 2 C0 1.3 0 0.7 0 0 Z "  transform="translate(129,252)"/>
<path d="M0 0 C0.7 0 1.3 0 2 0 C2 0.7 2 1.3 2 2 C1.3 2 0.7 2 0 2 C0 1.3 0 0.7 0 0 Z "  transform="translate(49,256)"/>
<path d="M0 0 C0.7 0 1.3 0 2 0 C2 0.7 2 1.3 2 2 C1.3 2 0.7 2 0 2 C0 1.3 0 0.7 0 0 Z "  transform="translate(52,256)"/>
<path d="M0 0 C0.7 0 1.3 0 2 0 C2 0.7 2 1.3 2 2 C1.3 2 0.7 2 0 2 C0 1.3 0 0.7 0 0 Z "  transform="translate(129,256)"/>
</g>
<g fill="rgb(192,192,192)" transform="translate(31,101)">
<path d="M0 0 C0.7 0 1.5 0 2.2 0 C2.6 0 2.6 0 4.6 0 C7.2 0 9.8 0 12.4 0 C14.2 0 16.1 0 18 0 C23 0 28.1 0 33.2 0 C38.5 0 43.8 0 49.1 0 C59.1 0 69.1 0 79.2 0.1 C92.7 0.1 106.3 0.1 119.8 0.1 C141.2 0.1 162.6 0.1 183.9 0.1 C183.9 59.5 183.9 118.9 183.9 180.1 C121.2 180.1 58.5 180.1 -6.1 180.1 C-6.1 150.6 -6.1 121.1 -6.1 90.7 C-6.1 81.4 -6.2 72 -6.2 62.4 C-6.2 51 -6.2 51 -6.2 45.7 C-6.2 42 -6.2 38.3 -6.2 34.6 C-6.2 29.8 -6.2 25.1 -6.2 20.3 C-6.2 18.6 -6.2 16.8 -6.2 15.1 C-6.2 12.7 -6.2 10.4 -6.2 8 C-6.2 6.7 -6.2 5.4 -6.2 4 C-6 -0.8 -4.4 0 0 0 Z M3.9 20.1 C3.9 69.6 3.9 119.1 3.9 170.1 C12.2 170.1 20.4 170.1 28.9 170.1 C28.9 120.6 28.9 71.1 28.9 20.1 C20.7 20.1 12.4 20.1 3.9 20.1 Z M41.9 20.1 C41.9 69.6 41.9 119.1 41.9 170.1 C50.2 170.1 58.4 170.1 66.9 170.1 C66.9 120.6 66.9 71.1 66.9 20.1 C58.7 20.1 50.4 20.1 41.9 20.1 Z M79.9 20.1 C79.9 69.6 79.9 119.1 79.9 170.1 C88.2 170.1 96.4 170.1 104.9 170.1 C104.9 120.6 104.9 71.1 104.9 20.1 C96.7 20.1 88.4 20.1 79.9 20.1 Z M117.9 20.1 C117.9 69.6 117.9 119.1 117.9 170.1 C126.2 170.1 134.4 170.1 142.9 170.1 C142.9 120.6 142.9 71.1 142.9 20.1 C134.7 20.1 126.4 20.1 117.9 20.1 Z M155.9 20.1 C155.9 69.6 155.9 119.1 155.9 170.1 C164.2 170.1 172.4 170.1 180.9 170.1 C180.9 120.6 180.9 71.1 180.9 20.1 C172.7 20.1 164.4 20.1 155.9 20.1 Z "  transform="translate(6.075800001621246,-0.12908130884170532)"/>
</g>
<g fill="rgb(212,212,212)" transform="translate(41,121)">
<path d="M0 0 C7.9 0 15.8 0 24 0 C24 49.5 24 99 24 150 C15.8 150 7.5 150 -1 150 C-1 130.6 -1 111.2 -1.1 91.8 C-1.1 82.8 -1.1 73.7 -1.1 64.7 C-1.1 56.9 -1.1 49 -1.1 41.2 C-1.1 37 -1.1 32.9 -1.1 28.7 C-1.1 24.8 -1.1 20.9 -1.1 17 C-1.1 15.5 -1.1 14.1 -1.1 12.6 C-1.1 10.7 -1.1 8.7 -1.1 6.8 C-1.1 5.7 -1.1 4.6 -1.1 3.5 C-1 1 -1 1 0 0 Z "  transform="translate(1,0)"/>
<path d="M0 0 C8.2 0 16.5 0 25 0 C25 49.5 25 99 25 150 C16.8 150 8.5 150 0 150 C0 100.5 0 51 0 0 Z "  transform="translate(38,0)"/>
<path d="M0 0 C8.2 0 16.5 0 25 0 C25 49.5 25 99 25 150 C16.8 150 8.5 150 0 150 C0 100.5 0 51 0 0 Z "  transform="translate(76,0)"/>
<path d="M0 0 C8.2 0 16.5 0 25 0 C25 49.5 25 99 25 150 C16.8 150 8.5 150 0 150 C0 100.5 0 51 0 0 Z "  transform="translate(114,0)"/>
<path d="M0 0 C8.2 0 16.5 0 25 0 C25 49.5 25 99 25 150 C16.8 150 8.5 150 0 150 C0 100.5 0 51 0 0 Z "  transform="translate(152,0)"/>
</g>
<g fill="rgb(51,39,53)" transform="translate(68,289)">
<path d="M0 0 C0.3 0 0.7 0 1 0 C1 3.6 1 7.3 1 11 C0.7 11 0.3 11 0 11 C0 7.4 0 3.7 0 0 Z "  transform="translate(21,0)"/>
<path d="M0 0 C0.3 0 0.7 0 1 0 C1 3.6 1 7.3 1 11 C0.7 11 0.3 11 0 11 C0 7.4 0 3.7 0 0 Z "  transform="translate(28,0)"/>
<path d="M0 0 C0.3 0 0.7 0 1 0 C1 3.6 1 7.3 1 11 C0.7 11 0.3 11 0 11 C0 7.4 0 3.7 0 0 Z "  transform="translate(39,0)"/>
<path d="M0 0 C0.3 0 0.7 0 1 0 C2.2 7.6 2.2 7.6 0 11 C0 7.4 0 3.7 0 0 Z "  transform="translate(84,0)"/>
<path d="M0 0 C0.3 0 0.7 0 1 0 C1 3.3 1 6.6 1 10 C0.7 10 0.3 10 0 10 C0 6.7 0 3.4 0 0 Z "  transform="translate(0,1)"/>
</g>
<g fill="rgb(44,33,55)" transform="translate(0,0)">
<path d="M0 0 C0.8 0 1.5 0 2.3 0 C2.7 0 2.7 0 4.9 -0 C5.9 -0 6.9 0 7.9 0 C8.9 0 9.9 0 10.9 0 C14.4 -0 17.8 0 21.3 0 C23.7 0 26.2 0 28.7 0 C34.8 0 40.8 0 46.8 0 C53.8 0 60.7 0 67.7 0 C86.1 0 104.5 0 122.8 0.1 C163.9 0.1 205 0.1 247.3 0.1 C247.3 99.1 247.3 198.1 247.3 300.1 C225.2 300.1 203.1 300.1 180.3 300.1 C180.3 296.5 180.3 292.9 180.3 289.1 C179 289.1 177.6 289.1 176.3 289.1 C176.3 291.1 176.3 293.1 176.3 295.1 C174.6 293.5 173.3 292.3 172.3 290.1 C170.6 289.8 169 289.5 167.3 289.1 C167.3 292.8 167.3 296.4 167.3 300.1 C166.3 300.1 165.3 300.1 164.3 300.1 C164.3 299 164.4 297.9 164.4 296.8 C164.3 293.1 164.3 293.1 162.3 290.1 C159.2 289.5 156.3 289.6 153.3 290.1 C151.2 292.1 151.2 292.1 150.3 294.1 C150.3 292.5 150.3 290.8 150.3 289.1 C148.6 289.1 147 289.1 145.3 289.1 C145.3 292.8 145.3 296.4 145.3 300.1 C143.3 300.1 141.3 300.1 139.3 300.1 C139.3 297.2 139.3 294.2 139.3 291.1 C140.9 291.1 142.6 291.1 144.3 291.1 C144.3 290.5 144.3 289.8 144.3 289.1 C140 289.1 135.7 289.1 131.3 289.1 C131.3 289.8 131.3 290.4 131.3 291.1 C132.6 291.1 133.9 291.1 135.3 291.1 C135.3 294.1 135.3 297.1 135.3 300.1 C134.3 300.1 133.3 300.1 132.3 300.1 C131.8 298.9 131.3 297.6 130.8 296.3 C130.6 296 130.6 296 129.9 294.2 C129.3 292.1 129.3 292.1 129.3 289.1 C127.3 289.1 125.3 289.1 123.3 289.1 C123.1 289.8 122.9 290.5 122.7 291.3 C122.4 292.2 122.1 293.1 121.8 294.1 C121.6 295 121.3 295.9 121 296.8 C120.3 299.1 120.3 299.1 119.3 300.1 C116.9 300.2 114.6 300.2 112.3 300.1 C113.4 298.3 113.4 298.3 119.3 289.1 C115.3 289.1 111.4 289.1 107.3 289.1 C107.3 289.8 107.3 290.4 107.3 291.1 C109.3 291.1 111.2 291.1 113.3 291.1 C112.3 292.4 111.4 293.8 110.4 295.1 C109.9 295.8 109.3 296.5 108.8 297.3 C107.3 299.1 107.3 299.1 105.3 300.1 C105.3 296.5 105.3 292.9 105.3 289.1 C103.6 289.1 102 289.1 100.3 289.1 C100.3 292.8 100.3 296.4 100.3 300.1 C98.3 300.1 96.3 300.1 94.3 300.1 C94.3 296.5 94.3 292.9 94.3 289.1 C92.6 289.1 91 289.1 89.3 289.1 C89.3 292.8 89.3 296.4 89.3 300.1 C88.6 300.1 88 300.1 87.3 300.1 C87.3 296.5 87.3 292.9 87.3 289.1 C85.6 289.1 84 289.1 82.3 289.1 C82.3 292.8 82.3 296.4 82.3 300.1 C80.6 300.1 79 300.1 77.3 300.1 C78.6 296.5 79.9 292.9 81.3 289.1 C80 289.5 78.6 289.8 77.3 290.1 C76 293.2 76 293.2 75.3 296.1 C74.6 296.1 74 296.1 73.3 296.1 C73.2 295.6 73.2 295.6 72.5 293.2 C72.1 292.2 71.7 291.2 71.3 290.1 C69.2 289.4 69.2 289.4 67.3 289.1 C67.5 289.7 67.7 290.2 67.9 290.8 C68.2 291.5 68.5 292.2 68.8 292.9 C69.1 293.6 69.3 294.4 69.6 295.1 C70.3 297.1 70.3 297.1 70.3 300.1 C69 300.1 67.6 300.1 66.3 300.1 C66.3 296.5 66.3 292.9 66.3 289.1 C64.6 289.1 63 289.1 61.3 289.1 C61.3 292.8 61.3 296.4 61.3 300.1 C53.4 299.2 53.4 299.2 52.3 298.1 C52.2 295.6 52.2 295.6 52.3 293.1 C53.3 292.1 53.3 292.1 56.8 292.1 C58 292.1 59.1 292.1 60.3 292.1 C59.9 291.5 59.6 290.8 59.3 290.1 C58 290.1 56.7 290.1 55.4 290.1 C55 290.1 55 290.1 53.2 290 C51.3 290.1 51.3 290.1 49.3 291.1 C48.9 294.1 48.6 297.1 48.3 300.1 C31.4 300.1 14.6 300.1 -2.7 300.1 C-2.7 262.1 -2.8 224 -2.8 185.9 C-2.8 181.4 -2.8 176.9 -2.8 172.4 C-2.8 171.5 -2.8 170.6 -2.8 169.7 C-2.8 155.2 -2.8 140.7 -2.8 126.2 C-2.8 111.4 -2.8 96.5 -2.8 81.7 C-2.8 72.5 -2.8 63.3 -2.8 54.1 C-2.8 47.8 -2.8 41.6 -2.8 35.3 C-2.8 31.6 -2.8 28 -2.8 24.4 C-2.8 20.5 -2.8 16.5 -2.8 12.6 C-2.8 11.4 -2.8 10.3 -2.8 9.1 C-2.8 8 -2.8 7 -2.8 5.9 C-2.8 5 -2.8 4.1 -2.8 3.2 C-2.7 0.6 -2.6 0.2 0 0 Z M119.4 41.1 C118.4 41.7 117.4 42.3 116.3 43 C116.1 43.1 116.1 43.1 114.6 44 C112.8 45.1 111 46.2 109.2 47.4 C107.9 48.2 106.6 49 105.3 49.7 C102.6 51.4 99.9 53 97.2 54.7 C93.6 56.9 89.9 59.2 86.3 61.4 C82.3 63.8 78.3 66.2 74.3 68.6 C64.3 74.7 54.3 80.7 44.2 86.6 C27.4 96.5 27.4 96.5 22.3 100.1 C22.3 100.5 22.3 100.8 22.3 101.1 C23.9 101.1 25.6 101.1 27.3 101.1 C27.3 160.5 27.3 219.9 27.3 281.1 C90.3 281.1 153.3 281.1 218.3 281.1 C218.3 221.7 218.3 162.3 218.3 101.1 C219.9 101.1 221.6 101.1 223.3 101.1 C220.6 98.1 217.4 96.3 214 94.3 C213.3 93.9 212.7 93.5 212.1 93.1 C210.7 92.3 209.3 91.5 208 90.8 C204.3 88.6 200.7 86.5 197 84.3 C196.3 83.9 195.5 83.4 194.8 83 C187.9 78.9 181.1 74.8 174.3 70.6 C164.6 64.7 154.8 58.8 145.1 53 C143.6 52.2 142.2 51.3 140.8 50.5 C138.8 49.3 136.9 48.1 134.9 47 C133.7 46.3 132.6 45.6 131.5 44.9 C130.4 44.3 129.4 43.7 128.3 43.1 C127.3 42.5 126.3 41.9 125.2 41.2 C122.3 40.1 122.3 40.1 119.4 41.1 Z "  transform="translate(2.7207937836647034,-0.12419849634170532)"/>
<path d="M0 0 C1.3 0 2.6 0 4 0 C4 2.3 4 4.6 4 7 C2.3 6.7 0.7 6.3 -1 6 C-1 4.3 -1 2.7 -1 1 C-0.7 0.7 -0.3 0.3 0 0 Z "  transform="translate(159,292)"/>
<path d="M0 0 C0.7 0 1.3 0 2 0 C2 0.7 2 1.3 2 2 C1.3 2 0.7 2 0 2 C0 1.3 0 0.7 0 0 Z "  transform="translate(128,295)"/>
<path d="M0 0 C1 1.3 2 2.6 3 4 C2 4.3 1 4.7 0 5 C0 3.4 0 1.7 0 0 Z "  transform="translate(174,295)"/>
<path d="M0 0 C4 1 4 1 4 1 Z "  transform="translate(127,299)"/>
</g>
</g>
</svg>